<svg width="400" height="320" viewBox="0 0 400 320" xmlns="http://www.w3.org/2000/svg" role="img" aria-label="Learning buddy illustration">
  <defs>
    <linearGradient id="grad" x1="0%" y1="0%" x2="100%" y2="100%">
      <stop offset="0%" stop-color="#C7D4FF"/>
      <stop offset="100%" stop-color="#8E9FFF"/>
    </linearGradient>
  </defs>
  <rect x="0" y="0" width="400" height="320" rx="28" fill="url(#grad)" opacity="0.45"/>
  <circle cx="110" cy="130" r="60" fill="#fff"/>
  <rect x="60" y="210" width="190" height="40" rx="16" fill="#fff" opacity="0.9"/>
  <rect x="70" y="220" width="80" height="10" rx="5" fill="#a7b7ff"/>
  <rect x="70" y="235" width="120" height="10" rx="5" fill="#d6deff"/>
  <rect x="240" y="190" width="110" height="70" rx="18" fill="#fff" opacity="0.9"/>
  <rect x="255" y="205" width="80" height="12" rx="6" fill="#a7b7ff"/>
  <rect x="255" y="225" width="60" height="10" rx="5" fill="#d6deff"/>
  <path d="M180 140 Q210 90 260 120" fill="none" stroke="#7c8be6" stroke-width="6" stroke-linecap="round"/>
  <circle cx="180" cy="140" r="8" fill="#7c8be6"/>
  <circle cx="210" cy="100" r="8" fill="#7c8be6"/>
  <circle cx="260" cy="120" r="8" fill="#7c8be6"/>
  <path d="M150 190 c10-35 30-55 60-55s60 20 70 55" fill="#fff" opacity="0.95"/>
  <circle cx="155" cy="135" r="10" fill="#7c8be6"/>
  <circle cx="205" cy="105" r="10" fill="#7c8be6"/>
  <circle cx="255" cy="125" r="10" fill="#7c8be6"/>
</svg>
